<svg width="16" height="16" viewBox="0 0 16 16" fill="none" xmlns="http://www.w3.org/2000/svg">
<path d="M6.53232 11.0898L11.8873 5.73477L10.8239 4.67137L6.53232 8.96295L4.36754 6.79817L3.30414 7.86157L6.53232 11.0898ZM7.59572 15.1914C6.54498 15.1914 5.55754 14.9921 4.63339 14.5933C3.70924 14.1945 2.90536 13.6533 2.22175 12.9697C1.53813 12.2861 0.996938 11.4822 0.598163 10.5581C0.199388 9.63391 0 8.64646 0 7.59572C0 6.54498 0.199388 5.55754 0.598163 4.63339C0.996938 3.70924 1.53813 2.90536 2.22175 2.22175C2.90536 1.53813 3.70924 0.996938 4.63339 0.598163C5.55754 0.199388 6.54498 0 7.59572 0C8.64646 0 9.63391 0.199388 10.5581 0.598163C11.4822 0.996938 12.2861 1.53813 12.9697 2.22175C13.6533 2.90536 14.1945 3.70924 14.5933 4.63339C14.9921 5.55754 15.1914 6.54498 15.1914 7.59572C15.1914 8.64646 14.9921 9.63391 14.5933 10.5581C14.1945 11.4822 13.6533 12.2861 12.9697 12.9697C12.2861 13.6533 11.4822 14.1945 10.5581 14.5933C9.63391 14.9921 8.64646 15.1914 7.59572 15.1914ZM7.59572 13.6723C9.2921 13.6723 10.729 13.0836 11.9063 11.9063C13.0836 10.729 13.6723 9.2921 13.6723 7.59572C13.6723 5.89934 13.0836 4.46249 11.9063 3.28515C10.729 2.10781 9.2921 1.51914 7.59572 1.51914C5.89934 1.51914 4.46249 2.10781 3.28515 3.28515C2.10781 4.46249 1.51914 5.89934 1.51914 7.59572C1.51914 9.2921 2.10781 10.729 3.28515 11.9063C4.46249 13.0836 5.89934 13.6723 7.59572 13.6723Z" fill="#00A018"/>
</svg>
