<svg xmlns="http://www.w3.org/2000/svg" xmlns:xlink="http://www.w3.org/1999/xlink" width="1080" zoomAndPan="magnify" viewBox="0 0 810 1012.49997" height="1350" preserveAspectRatio="xMidYMid meet" version="1.0"><defs><clipPath id="7a50c27367"><path d="M 221.839844 202.148438 L 656.625 202.148438 L 656.625 636.933594 L 221.839844 636.933594 Z M 221.839844 202.148438 " clip-rule="nonzero"/></clipPath><clipPath id="5d764aea76"><path d="M 221.839844 247.878906 L 221.839844 591.457031 C 221.839844 616.710938 242.3125 637.183594 267.566406 637.183594 L 611.148438 637.183594 C 636.402344 637.183594 656.875 616.710938 656.875 591.457031 L 656.875 247.878906 C 656.875 222.621094 636.402344 202.148438 611.148438 202.148438 L 267.566406 202.148438 C 242.3125 202.148438 221.839844 222.621094 221.839844 247.878906 Z M 221.839844 247.878906 " clip-rule="nonzero"/></clipPath></defs><g clip-path="url(#7a50c27367)"><g clip-path="url(#5d764aea76)"><path fill="#fff403" d="M 555.25 603.074219 C 517.296875 603.074219 492.75 584.976562 480.789062 561.3125 L 514.066406 542.03125 C 522.839844 556.351562 534.210938 566.855469 554.371094 566.855469 C 571.292969 566.855469 582.097656 558.386719 582.097656 546.703125 C 582.097656 529.136719 558.648438 522.253906 542.101562 515.171875 C 512.605469 502.617188 493.03125 486.84375 493.03125 453.546875 C 493.03125 422.894531 516.390625 399.539062 552.917969 399.539062 C 578.886719 399.539062 597.59375 408.589844 611.011719 432.230469 L 579.183594 452.675781 C 572.179688 440.121094 564.59375 435.160156 552.90625 435.160156 C 540.925781 435.160156 533.332031 442.757812 533.332031 452.675781 C 533.332031 464.941406 540.917969 469.902344 558.449219 477.496094 C 595.183594 493.238281 622.984375 505.617188 622.984375 546.121094 C 623 582.933594 594.097656 603.074219 555.25 603.074219 Z M 461.109375 541.457031 C 461.109375 583.804688 435.023438 606.191406 398.8125 606.191406 C 366.097656 606.191406 346.503906 593.679688 336.863281 571.925781 L 336.296875 571.925781 L 369.550781 548.679688 C 375.972656 560.050781 381.757812 568.125 395.765625 568.125 C 409.207031 568.125 417.605469 561.320312 417.605469 540.890625 L 417.605469 397.914062 L 461.109375 397.914062 Z M 221.839844 637.179688 L 656.871094 637.179688 L 656.871094 202.152344 L 221.839844 202.152344 Z M 221.839844 637.179688 " fill-opacity="1" fill-rule="evenodd"/></g></g></svg>