<svg xmlns="http://www.w3.org/2000/svg" xmlns:xlink="http://www.w3.org/1999/xlink" width="1080" zoomAndPan="magnify" viewBox="0 0 810 1012.49997" height="1350" preserveAspectRatio="xMidYMid meet" version="1.0"><defs><clipPath id="249b596c25"><path d="M 312.992188 216.144531 L 496.652344 216.144531 L 496.652344 565 L 312.992188 565 Z M 312.992188 216.144531 " clip-rule="nonzero"/></clipPath><clipPath id="081ad5e45c"><path d="M 395 564 L 415 564 L 415 620.941406 L 395 620.941406 Z M 395 564 " clip-rule="nonzero"/></clipPath></defs><g clip-path="url(#249b596c25)"><path fill="#689f38" d="M 496.644531 436.941406 C 496.644531 317.34375 404.820312 216.144531 404.820312 216.144531 C 404.820312 216.144531 312.996094 317.34375 312.996094 436.941406 C 312.996094 535.363281 375.144531 559.007812 397.164062 564.300781 L 404.820312 280.542969 L 412.480469 564.300781 C 434.5 559.007812 496.644531 535.363281 496.644531 436.941406 Z M 496.644531 436.941406 " fill-opacity="1" fill-rule="nonzero"/></g><g clip-path="url(#081ad5e45c)"><path fill="#689f38" d="M 397.164062 564.300781 L 395.640625 620.941406 L 414.003906 620.941406 L 412.480469 564.300781 C 407.742188 565.441406 404.820312 565.742188 404.820312 565.742188 C 404.820312 565.742188 401.902344 565.441406 397.164062 564.300781 Z M 397.164062 564.300781 " fill-opacity="1" fill-rule="nonzero"/></g></svg>