<svg xmlns="http://www.w3.org/2000/svg" xmlns:xlink="http://www.w3.org/1999/xlink" width="1080" zoomAndPan="magnify" viewBox="0 0 810 1012.49997" height="1350" preserveAspectRatio="xMidYMid meet" version="1.0"><defs><clipPath id="a06e2dbc72"><path d="M 179.882812 211 L 630.410156 211 L 630.410156 602 L 179.882812 602 Z M 179.882812 211 " clip-rule="nonzero"/></clipPath></defs><path fill="#53c1de" d="M 445.375 406.027344 C 445.375 384.492188 427.363281 367.03125 405.144531 367.03125 C 382.929688 367.03125 364.914062 384.492188 364.914062 406.027344 C 364.914062 427.566406 382.929688 445.023438 405.144531 445.023438 C 427.363281 445.023438 445.375 427.566406 445.375 406.027344 Z M 445.375 406.027344 " fill-opacity="1" fill-rule="nonzero"/><g clip-path="url(#a06e2dbc72)"><path fill="#53c1de" d="M 535.804688 333.632812 C 544.300781 300.171875 554.976562 238.117188 517.332031 217.078125 C 479.863281 196.132812 431.101562 236.269531 405.355469 260.363281 C 379.679688 236.511719 329.550781 196.546875 291.9375 217.648438 C 254.480469 238.667969 266.03125 299.691406 274.714844 333.363281 C 239.777344 342.980469 179.882812 363.699219 179.882812 406.027344 C 179.882812 448.234375 239.714844 470.777344 274.445312 480.386719 C 265.730469 514.246094 254.757812 574.394531 292.261719 595.367188 C 330.015625 616.46875 379.992188 577.453125 405.976562 553.097656 C 431.890625 577.332031 480.183594 616.601562 517.660156 595.570312 C 555.253906 574.476562 545.464844 513.257812 536.777344 479.390625 C 570.449219 469.757812 630.410156 447.710938 630.410156 406.027344 C 630.410156 364.105469 570.191406 343.21875 535.804688 333.632812 Z M 531.535156 461.441406 C 525.832031 443.945312 518.136719 425.339844 508.722656 406.121094 C 517.710938 387.355469 525.105469 368.988281 530.648438 351.605469 C 555.859375 358.691406 611.164062 374.882812 611.164062 406.027344 C 611.164062 437.464844 558.09375 453.808594 531.535156 461.441406 Z M 508.015625 579.425781 C 480.054688 595.117188 438.515625 557.5625 419.378906 539.714844 C 432.074219 526.257812 444.761719 510.613281 457.144531 493.238281 C 478.925781 491.363281 499.5 488.300781 518.160156 484.121094 C 524.273438 508.078125 536.101562 563.667969 508.015625 579.425781 Z M 301.878906 579.203125 C 273.914062 563.574219 286.695312 509.898438 293.105469 484.957031 C 311.558594 488.914062 331.988281 491.761719 353.820312 493.476562 C 366.285156 510.476562 379.339844 526.101562 392.496094 539.789062 C 376.242188 555.027344 329.972656 594.90625 301.878906 579.203125 Z M 199.125 406.027344 C 199.125 374.472656 254.097656 358.398438 279.882812 351.332031 C 285.523438 369.105469 292.917969 387.6875 301.84375 406.480469 C 292.800781 425.554688 285.300781 444.433594 279.609375 462.417969 C 255.023438 455.59375 199.125 437.601562 199.125 406.027344 Z M 301.578125 233.792969 C 329.660156 218.039062 373.226562 256.410156 391.867188 273.675781 C 378.78125 287.300781 365.84375 302.808594 353.488281 319.710938 C 332.300781 321.617188 312.015625 324.671875 293.371094 328.769531 C 286.375 301.609375 273.53125 249.53125 301.578125 233.792969 Z M 470.910156 339.988281 C 485.285156 341.746094 499.058594 344.085938 511.992188 346.949219 C 508.109375 359.007812 503.269531 371.621094 497.570312 384.550781 C 489.308594 369.355469 480.441406 354.46875 470.910156 339.988281 Z M 405.359375 287.007812 C 414.238281 296.328125 423.128906 306.738281 431.875 318.03125 C 414.132812 317.21875 396.363281 317.214844 378.625 318.019531 C 387.378906 306.832031 396.34375 296.4375 405.359375 287.007812 Z M 312.882812 384.535156 C 307.28125 371.652344 302.484375 358.984375 298.570312 346.75 C 311.421875 343.960938 325.132812 341.683594 339.414062 339.953125 C 329.855469 354.402344 321.003906 369.285156 312.882812 384.535156 Z M 339.824219 473.433594 C 325.070312 471.835938 311.152344 469.671875 298.304688 466.960938 C 302.28125 454.511719 307.183594 441.570312 312.90625 428.410156 C 321.136719 443.820312 330.125 458.847656 339.824219 473.433594 Z M 405.894531 526.363281 C 396.769531 516.824219 387.671875 506.269531 378.785156 494.921875 C 396.628906 495.601562 414.503906 495.601562 432.34375 494.828125 C 423.570312 506.386719 414.710938 516.953125 405.894531 526.363281 Z M 497.753906 427.742188 C 503.777344 441.042969 508.851562 453.914062 512.882812 466.152344 C 499.820312 469.042969 485.71875 471.371094 470.859375 473.097656 C 480.457031 458.34375 489.46875 443.226562 497.753906 427.742188 Z M 446.402344 475.359375 C 419.113281 477.25 391.652344 477.230469 364.355469 475.515625 C 348.84375 453.550781 335.035156 430.453125 323.113281 406.476562 C 334.976562 382.546875 348.683594 359.496094 364.121094 337.566406 C 391.441406 335.566406 418.929688 335.558594 446.246094 337.578125 C 461.550781 359.503906 475.238281 382.496094 487.375 406.210938 C 475.382812 430.128906 461.605469 453.226562 446.402344 475.359375 Z M 507.71875 233.238281 C 535.808594 248.941406 523.304688 304.710938 517.167969 328.960938 C 498.476562 324.78125 478.179688 321.671875 456.929688 319.738281 C 444.550781 302.652344 431.722656 287.113281 418.847656 273.667969 C 437.726562 256.027344 479.902344 217.691406 507.71875 233.238281 Z M 507.71875 233.238281 " fill-opacity="1" fill-rule="evenodd"/></g></svg>